<mxfile host="app.diagrams.net" modified="2023-11-14T02:05:19.042Z" agent="Mozilla/5.0 (Windows NT 10.0; Win64; x64) AppleWebKit/537.36 (KHTML, like Gecko) Chrome/119.0.0.0 Safari/537.36" version="22.1.0" etag="yNB7oo1G7o2i2lh_5btX" type="github">
  <diagram name="PÃ¡gina-1" id="w9HvA0hKsICmtK08iJ2W">
    <mxGraphModel>
      <root>
        <mxCell id="0" />
        <mxCell id="1" parent="0" />
      </root>
    </mxGraphModel>
  </diagram>
</mxfile>
